<svg id="Group_9390" data-name="Group 9390" xmlns="http://www.w3.org/2000/svg" width="42" height="26.564" viewBox="0 0 42 26.564">
  <path id="Path_47" data-name="Path 47" d="M5.385,0H36.615A5.385,5.385,0,0,1,42,5.385V21.179a5.385,5.385,0,0,1-5.385,5.385H5.385A5.385,5.385,0,0,1,0,21.179V5.385A5.385,5.385,0,0,1,5.385,0Z" transform="translate(0 0)" fill="#fff"/>
  <g id="Group_35" data-name="Group 35" transform="translate(8.346 9.559)">
    <path id="Path_41" data-name="Path 41" d="M442.278,1062.743l2.509-4.841s.1-.364,0-.489a.722.722,0,0,0-.3-.188h3.186a.487.487,0,0,1,.414.489c.05.464.417,5.622.417,5.622s.009.584.246.747.281.19.281.19h-2.8a.3.3,0,0,1-.32-.263,9.748,9.748,0,0,1,0-1.245h-1.479l-.5.982s-.091.228.057.348.234.177.234.177h-2.352s-.314-.029-.194-.365A11.394,11.394,0,0,1,442.278,1062.743Z" transform="translate(-441.649 -1057.177)" fill="#2c2d6d"/>
    <path id="Path_42" data-name="Path 42" d="M513.608,1071.4s.347.2.338.511-1.072,4.67-1.072,4.67-.084.3.337.294,2.46,0,2.46,0a.674.674,0,0,1-.343-.531c.011-.331.685-3,.685-3a.521.521,0,0,1,.462-.394c.394-.046.913.074,1.262-.12s.52-1.427.52-1.427h-.9a.516.516,0,0,0-.514.3c-.206.354-.12.335-.226.43s-.391.033-.391.033a4.411,4.411,0,0,0,.086-.463c.011-.148-.086-.3-.371-.3Z" transform="translate(-505.007 -1069.783)" fill="#2c2d6d"/>
    <path id="Path_43" data-name="Path 43" d="M564.815,1059c-.175.685-.6,2.593-.6,2.593s-.21.757.451.772,1.566,0,1.566,0a.83.83,0,0,0,.349-.074c.074-.067.237-.237.237-.237a4.946,4.946,0,0,1-.416,1.551c-.245.252-.445.252-1.054.26s-2.857,0-2.857,0a1.113,1.113,0,0,1-.891-.534,3.235,3.235,0,0,1-.111-1.736c.059-.356.668-2.962.668-2.962s.282-1.276,1.2-1.625a19.229,19.229,0,0,1,4.29-.171s-.223.957-.3,1.121-.148.3-.527.319-1.373.045-1.373.045S564.99,1058.316,564.815,1059Z" transform="translate(-548.202 -1056.79)" fill="#2c2d6d"/>
    <path id="Path_44" data-name="Path 44" d="M618.2,1090.032l.2-.839h-1.34a1.679,1.679,0,0,0-1.51.839c-.518.914-.5,2.138,0,2.5a1.929,1.929,0,0,0,1.945-.034,1.615,1.615,0,0,0,.487-.839c.022-.132.026-.18.026-.18s-.344,0-.441-.266a.948.948,0,0,1,.177-.931C618,1089.99,618.2,1090.032,618.2,1090.032Z" transform="translate(-596.021 -1085.616)" fill="#2c2d6d"/>
    <path id="Path_45" data-name="Path 45" d="M629.752,1071.257l-.215,1.024a.207.207,0,0,0,.215.238c.245.007,1.67,0,1.67,0s.327.03.26.445-.69,3.31-.69,3.31-.126.453.193.468,2.471,0,2.471,0a.438.438,0,0,1-.327-.468c.007-.4.831-3.711.831-3.711a1.5,1.5,0,0,0-.052-.839.879.879,0,0,0-.675-.468Z" transform="translate(-608.801 -1069.661)" fill="#2c2d6d"/>
    <path id="Path_46" data-name="Path 46" d="M471.144,1057.875l-.675,3.363-.579,1.022h.386l-.267,1.159h.609l.193-1.159h.334l-.186-1.022.668-3.363Z" transform="translate(-466.773 -1057.827)" fill="#fac614"/>
  </g>
</svg>
