<svg xmlns="http://www.w3.org/2000/svg" width="24.999" height="24" viewBox="0 0 24.999 24"><g transform="translate(-2.5 -3.125)"><g transform="translate(2.5 3.125)"><path d="M18.949,22.146A1.894,1.894,0,1,1,20.843,24,1.876,1.876,0,0,1,18.949,22.146Zm-14.064,0A1.893,1.893,0,1,1,6.778,24,1.874,1.874,0,0,1,4.885,22.146Zm2.1-3.8A3.19,3.19,0,0,1,3.83,15.686l-.024-.2L2.663,2.144.777,1.824A.926.926,0,0,1,0,.886L.013.762A.931.931,0,0,1,.937,0H.97L1.1.013,3.7.454a.928.928,0,0,1,.751.693l.023.136.294,3.431H22.386a2.613,2.613,0,0,1,1.914.816,2.535,2.535,0,0,1,.693,1.926l-.02.185-1.186,8.031a3.18,3.18,0,0,1-2.954,2.673l-.2.007ZM5.675,15.332a1.3,1.3,0,0,0,1.167,1.175l.145.008H20.627a1.313,1.313,0,0,0,1.273-.963l.029-.143,1.187-8.031a.727.727,0,0,0-.621-.819l-.11-.009H4.922Zm9.481-4.256a.917.917,0,0,1-.127-1.828l.127-.009h3.466a.918.918,0,0,1,.127,1.829l-.127.008Z" transform="translate(0)" fill="#3e3e3e"/></g></g></svg>