<svg xmlns="http://www.w3.org/2000/svg" width="126.789" height="110.013" viewBox="0 0 126.789 110.013">
  <g id="_-VD---Homepage-and-PDP---Iteration-2" data-name="💎-VD---Homepage-and-PDP---Iteration-2" transform="translate(0)">
    <g id="ELC---Homepage-Mega-Nav---Learning-Skills---Large-1440px" transform="translate(0 0)">
      <g id="Desktop_Global_Header_ELC" data-name="Desktop/Global/Header/ELC" transform="translate(0 0)">
        <g id="Header" transform="translate(0)">
          <g id="Logo-Group">
            <g id="Global_Logos_ELC" data-name="Global/Logos/ELC">
              <g id="Group_9389" data-name="Group 9389">
                <g id="Group-3">
                  <path id="Fill-1" d="M2.715,85.524C1.589,90.347,2.342,94.377,4.953,97.5a14.269,14.269,0,0,0,7.327,4.521l.816.2c6.374,1.54,23.306,5.631,50.394,5.7h.462c26.159,0,52.009-5.216,52.268-5.269a9.5,9.5,0,0,0,7-4.75c2.075-3.836,1.531-9.127.072-12.669l-.013-.033a203.369,203.369,0,0,0-23.335-43.65C86.461,21.255,76.813,11.426,72.693,7.229l-.089-.09C69,3.595,65.575,2.037,62.148,2.374c-2.862.282-5.75,1.9-8.829,4.931C47.2,13.339,33.375,31.517,25.5,42.515q-.985,1.551-2.072,3.246C16.355,56.816,6.669,71.951,2.715,85.524m61.235,24.6h-.467c-27.349-.065-44.466-4.2-50.91-5.758l-.81-.195A16.577,16.577,0,0,1,3.251,98.92C1.129,96.381-1.059,91.9.563,84.99c0-.019.009-.037.015-.056C4.616,71.048,14.41,55.744,21.561,44.569c.726-1.135,1.424-2.226,2.084-3.265.011-.017.022-.034.034-.051C31.6,30.192,45.542,11.86,51.761,5.729,55.216,2.323,58.542.5,61.93.17c4.07-.4,8.186,1.415,12.236,5.4l.014.014.1.1c4.164,4.242,13.915,14.177,27.5,34.623a205.571,205.571,0,0,1,23.57,44.1c1.653,4.026,2.239,10.079-.178,14.547a11.6,11.6,0,0,1-8.519,5.869c-.249.051-26.311,5.311-52.7,5.311" transform="translate(0 -0.116)" fill="#fefefe" fill-rule="evenodd"/>
                </g>
                <path id="Fill-4" d="M72.886,5.87C77,10.064,86.718,19.912,100.351,40.428a205.428,205.428,0,0,1,23.461,43.891c2.351,5.707,2.777,16.882-7.875,18.925,0,0-26.214,5.354-52.955,5.292-28.5-.068-45.953-4.606-51.464-5.922-4.5-1.076-13.16-6.008-10.379-17.856,4.4-15.144,15.851-32.183,22.939-43.347C31.674,30.8,45.741,12.236,52.037,6.031,57.8.349,64.656-2.221,72.886,5.87" transform="translate(0.503 0.371)" fill="#0d943f" fill-rule="evenodd"/>
                <path id="Fill-6" d="M57.343,9.006a7,7,0,0,0-5.825,3.278L9.779,74.64C7.8,77.6,7.405,80.68,8.7,83.1a6.811,6.811,0,0,0,6.068,3.484l85.565.2.02.675v-.675A6.143,6.143,0,0,0,106,83.67c1.3-2.42.913-5.614-1.034-8.543L63.206,12.312a7.026,7.026,0,0,0-5.863-3.307m43.006,79.131h-.024l-85.564-.2a8.164,8.164,0,0,1-7.258-4.2C5.97,80.861,6.39,77.273,8.656,73.889L50.393,11.533a8.183,8.183,0,0,1,13.938.033L106.1,74.38c2.227,3.35,2.638,7.062,1.1,9.928a7.453,7.453,0,0,1-6.847,3.829" transform="translate(5.528 6.172)" fill="#fefefe" fill-rule="evenodd"/>
                <path id="Fill-8" d="M43.241,14.222s-2.782-1.663-5.173-.608c0,0-.331,0-2.985.125a5.732,5.732,0,0,0-5.255,5.62s-.4,1.324-.666,1.456c0,0-.8,1.455,1.053,3.184,0,0,3.836,4.978,4.568,3.589a1.226,1.226,0,0,0,1.526-.2s1.328-.129,1.531-2.117c0,0,.733-1.191,1.327-.2,0,0,.065.661.465-.331,0,0,.466-.462.2-2.054A4.042,4.042,0,0,1,41.3,20.976s3.984-1.713,3.59-3.57a3.463,3.463,0,0,0-1.32-2.918Z" transform="translate(24.305 10.873)" fill="#fefefe" fill-rule="evenodd"/>
                <path id="Fill-10" d="M41.549,16.706s-2.126,1.585-3.123,2.246c0,0-1.262.726-1.2,2.979,0,0-.2,1.59-.865,1.191,0,0-1.192-.532-.93.66,0,0,.063.928.86.467l.464.929a5.021,5.021,0,0,1-1.526.128l-.929-.532s-1.063.727-1.329.858c0,0,1.26-.2,3.841,2.859,0,0-.056-4.307,2.465-4.3,0,0,3.318-.986,3.322-2.444A6.262,6.262,0,0,0,42.54,18.7s.732-.792-.394-1.325Z" transform="translate(27.642 13.76)" fill="#fefefe" fill-rule="evenodd"/>
                <path id="Fill-12" d="M40.694,36.559s1.2-2.714.938-3.906a9.782,9.782,0,0,1,.408-3.91s.869-2.581-2.64-5.372c0,0-2.516-2.26-4.576-.94,0,0-6.777,4.358-7.469,16.35,0,0,2.121.6,3.06-3.637,0,0,.671-3.047,1.535-3.906a4.041,4.041,0,0,0,.935-2.781s1.738-5.363,4.72-4.427c0,0,4.509.606,3.238,5.175a13.193,13.193,0,0,1-1.264,2.678c-.033.806,0,1.586-2.867,5.2a7.9,7.9,0,0,1,3.252-.523Z" transform="translate(22.934 18.212)" fill="#fefefe" fill-rule="evenodd"/>
                <path id="Fill-14" d="M36.266,33.653s-1.2,1.72-.993-.731c0,0,.664-.462.535-2.052,0,0-.58-6.959,3-5.493,0,0,3.056-.436,3.532,8.744.243,2.332.038,4.714,2.071,6.378a5.6,5.6,0,0,0,2.033,1.521s2.006,1.337.348,1.134a17.064,17.064,0,0,0-3.377-1.438S39.525,39.988,39.6,38.53c0,0-2.623-4.025-1.47-5.932,0,0-.4-1.327-1.128.13Z" transform="translate(29.552 20.859)" fill="#fefefe" fill-rule="evenodd"/>
                <path id="Fill-16" d="M31.927,32.581s3.125-3.572,7.1-1.772c0,0,2.195,2.225,4.375,4.76,0,0,2.443,2.321,3.57,2.589,0,0,4.239,1.293,4.569,1.757,0,0,2.324-.789,1.193.8,0,0-.644,2.9-2.644,2.165a8.614,8.614,0,0,0-3.8-.523s-1.121.363-2.457-1.972c0,0-4.7.431-7.747-2.294,0,0-2.065,4.037-2.86,3.174,0,0-1.923-.27-2.707-5.507l1.266-1.984Z" transform="translate(25.591 25.158)" fill="#fefefe" fill-rule="evenodd"/>
                <path id="Fill-18" d="M31.433,34.062s.788,3.316,2.045,4.18c0,0-4.119.666-4.988-.715Z" transform="translate(23.885 28.31)" fill="#fefefe" fill-rule="evenodd"/>
                <path id="Fill-20" d="M43.132,55.856l-7.808-.019L35.359,41l2.409.006-.031,12.676,5.4.013Zm4.107-18.324a3.009,3.009,0,0,1-1.011-.646l-16.158-.039c-.064,0-.125.014-.188.018C29.739,38.154,28.6,38.054,28.111,38a2.223,2.223,0,0,0-.3,1.1l-.046,18.821a2.254,2.254,0,0,0,2.248,2.255l18.84.045a2.252,2.252,0,0,0,2.258-2.246l.045-18.82a2.237,2.237,0,0,0-.364-1.226,13.7,13.7,0,0,1-3.555-.39Z" transform="translate(23.278 30.644)" fill="#fefefe" fill-rule="evenodd"/>
                <path id="Fill-22" d="M28.949,36.909a2.239,2.239,0,0,0-.664.34.791.791,0,0,0,.614-.2.325.325,0,0,0,.051-.14" transform="translate(23.712 30.697)" fill="#fefefe" fill-rule="evenodd"/>
                <path id="Fill-24" d="M39.676,23.546s-3.383-.339-3.793,4.762c0,0-.135.861-.533,1.058a15.567,15.567,0,0,0-2.469,6.289s-.8,1.788-1.266,1.985c0,0-3.728,5.691-3.8,7.214a8.144,8.144,0,0,0-2.729,3.252l0,.014c-.08.2-.128.321-.128.321.013.168.117.192.24.157a1.632,1.632,0,0,0,.469-.28c.034,1.117.494.92.879.859-.027.843,1.029.858,1.216.684a3.191,3.191,0,0,0,.7.964c.288.273.575.436.707.342.387-.383-.48-1.614.266-2.492a.909.909,0,0,1,.561-.334,2.956,2.956,0,0,1,.745.089,1.358,1.358,0,0,0,.318.028.793.793,0,0,0,.614-.2.326.326,0,0,0,.051-.14.968.968,0,0,0-.009-.309,3.663,3.663,0,0,1-1.655-1.358s5.785-5.686,5.527-8.8c0,0,3.922-3.636,4.923-6.483l.136-1.06s3.991-4.893-.98-6.562" transform="translate(20.928 19.49)" fill="#fefefe" fill-rule="evenodd"/>
                <path id="Fill-26" d="M29.585,43.316,23.708,43.3,23.7,47.015l5.877.014-.005,2.115-5.877-.015-.011,4.792,5.877.015-.006,2.157-8.287-.019L21.3,41.242l8.287.02Zm7.122-3.651a1.047,1.047,0,0,1-1.228-.735c-.932.22-1.115-.871-1.115-.871a.8.8,0,0,1-.894-.263,1.549,1.549,0,0,1,.149-.94l-17.168-.041a2.252,2.252,0,0,0-2.258,2.244l-.044,18.821A2.248,2.248,0,0,0,16.4,60.134l18.84.046a2.253,2.253,0,0,0,2.259-2.246l.041-17.34a3.4,3.4,0,0,1-.829-.929Z" transform="translate(11.862 30.617)" fill="#fefefe" fill-rule="evenodd"/>
                <path id="Fill-28" d="M54.259,40.673l-.58,0L53.2,39.66l-.377,0,0,1.011H52.3l.006-2.42.934,0c.682,0,1.023.234,1.021.66a.641.641,0,0,1-.54.669ZM53.2,37.657a1.77,1.77,0,0,0-1.289.524,1.873,1.873,0,0,0-.559,1.313,1.847,1.847,0,0,0,1.808,1.845,1.89,1.89,0,0,0,1.337-.534,1.756,1.756,0,0,0,.54-1.273A1.838,1.838,0,0,0,53.2,37.657Z" transform="translate(43.048 31.324)" fill="#fefefe" fill-rule="evenodd"/>
                <path id="Fill-30" d="M63.066,41.685a2.194,2.194,0,0,1-1.533.629,2.185,2.185,0,0,1-2.155-2.168,2.177,2.177,0,0,1,.655-1.541,2.079,2.079,0,0,1,1.51-.611A2.156,2.156,0,0,1,63.7,40.156a2.09,2.09,0,0,1-.639,1.529Zm-4.2,2.976A6.879,6.879,0,0,0,54.3,42.907,5.285,5.285,0,0,0,48.8,48.5a5.207,5.207,0,0,0,5.22,5.531,7.177,7.177,0,0,0,4.8-1.856l-.007,2.718a7.679,7.679,0,0,1-4.614,1.38,7.889,7.889,0,0,1-5.685-2.214A7.812,7.812,0,0,1,54.2,40.687a8.1,8.1,0,0,1,4.794,1.547Zm3.667-7.737-18.8-.045a2.467,2.467,0,0,1-2.106,1.345,2.251,2.251,0,0,0-.191.9l-.046,18.82A2.252,2.252,0,0,0,43.633,60.2l18.841.046A2.253,2.253,0,0,0,64.732,58l.045-18.82a2.252,2.252,0,0,0-2.248-2.256Z" transform="translate(34.696 30.672)" fill="#fefefe" fill-rule="evenodd"/>
                <path id="Fill-32" d="M52.472,38.159h-.317l0,.759h.342c.382,0,.562-.106.563-.369s-.19-.388-.585-.389" transform="translate(43.722 31.744)" fill="#fefefe" fill-rule="evenodd"/>
              </g>
            </g>
          </g>
        </g>
      </g>
    </g>
  </g>
</svg>
