<svg id="Group_9706" data-name="Group 9706" xmlns="http://www.w3.org/2000/svg" width="17.939" height="45" viewBox="0 0 17.939 45">
  <path id="Path_91" data-name="Path 91" d="M6.047,27.8A17.6,17.6,0,0,1,.5,18.532,17.179,17.179,0,0,1,0,14.4V31.029a1.19,1.19,0,0,0,1.31,1.209,12.5,12.5,0,0,0,7.66-3.326h0A4.265,4.265,0,0,1,6.047,27.8Z" transform="translate(0 0.163)" fill="#73cde1"/>
  <path id="Path_92" data-name="Path 92" d="M17.87,15v.705A17.805,17.805,0,0,1,11.823,27.9,4.391,4.391,0,0,1,8.9,29.013h0a12.052,12.052,0,0,0,7.66,3.326,1.19,1.19,0,0,0,1.31-1.209V15Z" transform="translate(0.07 0.164)" fill="#73cde1"/>
  <path id="Path_93" data-name="Path 93" d="M10.846,34.309a2.121,2.121,0,0,0-3.83,0C6.009,36.527,4.9,39.147,4.9,40.659A4.043,4.043,0,0,0,8.931,44.69h0a4.043,4.043,0,0,0,4.031-4.031C12.963,39.147,11.854,36.527,10.846,34.309Z" transform="translate(0.038 0.31)" fill="#ed3d7f"/>
  <path id="Path_94" data-name="Path 94" d="M11.792,1.008a4.292,4.292,0,0,0-5.644,0A18.144,18.144,0,0,0,0,14.513a17.677,17.677,0,0,0,6.047,13.4,4.427,4.427,0,0,0,5.745,0,17.677,17.677,0,0,0,6.047-13.4A17.7,17.7,0,0,0,11.792,1.008ZM8.97,18.444A5.184,5.184,0,0,1,3.83,13.2a2.79,2.79,0,0,1,.1-.907A5.1,5.1,0,0,1,8.97,8.063,5.284,5.284,0,0,1,14.11,12.3a2.79,2.79,0,0,1,.1.907A5.2,5.2,0,0,1,8.97,18.444Z" transform="translate(0 0.05)" fill="#632469"/>
</svg>
