<svg xmlns="http://www.w3.org/2000/svg" width="17.292" height="17.217" viewBox="0 0 17.292 17.217">
  <path id="Path_6049" data-name="Path 6049" d="M-59.308,403.762h.706c.126.011.251.024.377.033a8.334,8.334,0,0,1,2.088.439,8.541,8.541,0,0,1,3.946,2.792,8.484,8.484,0,0,1,1.849,4.653c.011.125.023.25.034.376v.706c-.005.037-.014.074-.016.111a8,8,0,0,1-.22,1.541,8.658,8.658,0,0,1-5.791,6.227,8.4,8.4,0,0,1-1.556.339v-6.768h.113c.623,0,1.247,0,1.87,0,.065,0,.1-.014.1-.085s.021-.169.032-.254q.1-.795.206-1.59c.02-.159.04-.319.061-.492H-57.9v-.108c0-.462,0-.923,0-1.385a3.342,3.342,0,0,1,.025-.413.789.789,0,0,1,.537-.709,1.445,1.445,0,0,1,.4-.082c.467-.014.935-.011,1.4-.015l.1-.005V406.92c-.038-.006-.073-.015-.108-.017-.463-.026-.927-.054-1.391-.075a4.418,4.418,0,0,0-1.261.094,2.668,2.668,0,0,0-1.917,1.567,3.8,3.8,0,0,0-.291,1.556c0,.547,0,1.093,0,1.64v.111h-2.078v2.419h2.071v6.7c-.015,0-.024,0-.033,0-.046-.007-.093-.013-.139-.022a8.495,8.495,0,0,1-4.32-2.218,8.474,8.474,0,0,1-2.686-5.813,8.349,8.349,0,0,1,.366-2.992,8.529,8.529,0,0,1,3.085-4.378,8.465,8.465,0,0,1,4.459-1.694C-59.552,403.785-59.43,403.773-59.308,403.762Z" transform="translate(67.6 -403.762)" fill="#262626"/>
</svg>
