<svg xmlns="http://www.w3.org/2000/svg" width="17.001" height="16.001" viewBox="0 0 17.001 16.001">
  <g id="Iconly_Light-outline_Buy" data-name="Iconly/Light-outline/Buy" transform="translate(-1.639 -1.213)">
    <g id="Buy" transform="translate(1.404 1.213)">
      <path id="Buy-2" data-name="Buy" d="M12.886,14.765A1.289,1.289,0,1,1,14.174,16,1.264,1.264,0,0,1,12.886,14.765Zm-9.564,0a1.263,1.263,0,0,1,1.287-1.238,1.238,1.238,0,1,1,0,2.473A1.262,1.262,0,0,1,3.322,14.765Zm1.429-2.531A2.144,2.144,0,0,1,2.6,10.457l-.016-.133-.778-8.9L.528,1.216A.62.62,0,0,1,0,.59L.009.508A.632.632,0,0,1,.66,0L.746.009,2.514.3a.628.628,0,0,1,.512.461L3.04.855l.2,2.287H15.223A1.737,1.737,0,0,1,17,4.971l-.014.123-.807,5.354a2.139,2.139,0,0,1-2.008,1.782l-.14,0Z" transform="translate(0.235 0)" fill="#fff"/>
    </g>
  </g>
</svg>
