<svg id="Star" xmlns="http://www.w3.org/2000/svg" width="11.554" height="11" viewBox="0 0 11.554 11">
  <path id="Path_5962" data-name="Path 5962" d="M589.722,423.849a.933.933,0,0,1-.926-1.084l.5-2.859-2.078-1.968a.934.934,0,0,1-.008-1.323,1.021,1.021,0,0,1,.515-.261l2.9-.419,1.249-2.566a.932.932,0,0,1,1.256-.42.949.949,0,0,1,.42.413l0,.007,1.286,2.591,2.846.39a.932.932,0,0,1,.615.359.919.919,0,0,1-.1,1.236l-2.062,1.994.5,2.823a.939.939,0,0,1-.769,1.07.983.983,0,0,1-.587-.09l-2.58-1.351-2.542,1.354A.964.964,0,0,1,589.722,423.849Zm6.4-3.888h0Zm.015-.059v0Zm1.387-2.673Z" transform="translate(-586.942 -412.849)" fill="#5846b9"/>
</svg>
