<svg id="Group_9394" data-name="Group 9394" xmlns="http://www.w3.org/2000/svg" xmlns:xlink="http://www.w3.org/1999/xlink" width="42" height="26.775" viewBox="0 0 42 26.775">
  <defs>
    <clipPath id="clip-path">
      <path id="Path_22" data-name="Path 22" d="M5.01.973a.294.294,0,0,1-.408.111L4.243.874a2.345,2.345,0,0,0-2.412,0A2.376,2.376,0,0,0,.619,2.965v.408a.3.3,0,0,1-.3.3.3.3,0,0,1-.3-.3V2.965A2.948,2.948,0,0,1,1.534.343a2.937,2.937,0,0,1,3.018,0l.359.21a.347.347,0,0,1,.1.421M4.4,5.946A.294.294,0,0,0,4,5.835l-.359.21A1.212,1.212,0,0,1,1.819,4.994V2.977A1.212,1.212,0,0,1,3.637,1.926L5.381,2.94a1.215,1.215,0,0,1,0,2.1l-.359.21a.3.3,0,1,0,.3.52l.359-.21a1.758,1.758,0,0,0,.9-1.571,1.783,1.783,0,0,0-.9-1.571L3.934,1.406a1.775,1.775,0,0,0-1.819,0,1.758,1.758,0,0,0-.9,1.571V4.994A1.812,1.812,0,0,0,3.934,6.565l.359-.21h0A.31.31,0,0,0,4.4,5.946Zm.136,1.67a2.937,2.937,0,0,1-3.018,0A2.96,2.96,0,0,1,0,4.994V4.586a.3.3,0,0,1,.3-.3.3.3,0,0,1,.3.3v.408A2.361,2.361,0,0,0,1.806,7.084a2.345,2.345,0,0,0,2.412,0C4.8,6.75,5.381,6.416,5.963,6.07A2.376,2.376,0,0,0,7.175,3.979h0A2.361,2.361,0,0,0,5.963,1.889L5.6,1.679a.3.3,0,1,1,.3-.52h0l.359.21a2.918,2.918,0,0,1,1.534,2.61A2.948,2.948,0,0,1,6.284,6.6C5.7,6.936,5.121,7.27,4.54,7.616ZM2.425,3.386a.293.293,0,0,0,.3.3.3.3,0,0,0,.3-.3h0V3.1a.068.068,0,0,1,.037-.062.079.079,0,0,1,.074,0l.767.445.767.445a.07.07,0,0,1,0,.124L3.9,4.5l-.767.445a.079.079,0,0,1-.074,0,.068.068,0,0,1-.037-.062V4.6a.293.293,0,0,0-.3-.3.3.3,0,0,0-.3.3v.408a.6.6,0,0,0,.9.52L5.072,4.511a.568.568,0,0,0,.3-.52.592.592,0,0,0-.3-.52L3.328,2.458a.592.592,0,0,0-.606,0,.568.568,0,0,0-.3.52Z" transform="translate(0 0.075)"/>
    </clipPath>
  </defs>
  <path id="Path_30" data-name="Path 30" d="M5.385,0H36.615A5.406,5.406,0,0,1,42,5.427v15.92a5.406,5.406,0,0,1-5.385,5.427H5.385A5.406,5.406,0,0,1,0,21.348V5.427A5.406,5.406,0,0,1,5.385,0Z" transform="translate(0 0)" fill="#fff"/>
  <g id="idram_logo.svg" data-name="idram logo.svg" transform="translate(5.411 9.06)">
    <g id="Group_13" data-name="Group 13" transform="translate(1.498 0.434)">
      <g id="Group_12" data-name="Group 12">
        <path id="Path_21" data-name="Path 21" d="M5.01.973a.294.294,0,0,1-.408.111L4.243.874a2.345,2.345,0,0,0-2.412,0A2.376,2.376,0,0,0,.619,2.965v.408a.3.3,0,0,1-.3.3.3.3,0,0,1-.3-.3V2.965A2.948,2.948,0,0,1,1.534.343a2.937,2.937,0,0,1,3.018,0l.359.21a.347.347,0,0,1,.1.421M4.4,5.946A.294.294,0,0,0,4,5.835l-.359.21A1.212,1.212,0,0,1,1.819,4.994V2.977A1.212,1.212,0,0,1,3.637,1.926L5.381,2.94a1.215,1.215,0,0,1,0,2.1l-.359.21a.3.3,0,1,0,.3.52l.359-.21a1.758,1.758,0,0,0,.9-1.571,1.783,1.783,0,0,0-.9-1.571L3.934,1.406a1.775,1.775,0,0,0-1.819,0,1.758,1.758,0,0,0-.9,1.571V4.994A1.812,1.812,0,0,0,3.934,6.565l.359-.21h0A.31.31,0,0,0,4.4,5.946Zm.136,1.67a2.937,2.937,0,0,1-3.018,0A2.96,2.96,0,0,1,0,4.994V4.586a.3.3,0,0,1,.3-.3.3.3,0,0,1,.3.3v.408A2.361,2.361,0,0,0,1.806,7.084a2.345,2.345,0,0,0,2.412,0C4.8,6.75,5.381,6.416,5.963,6.07A2.376,2.376,0,0,0,7.175,3.979h0A2.361,2.361,0,0,0,5.963,1.889L5.6,1.679a.3.3,0,1,1,.3-.52h0l.359.21a2.918,2.918,0,0,1,1.534,2.61A2.948,2.948,0,0,1,6.284,6.6C5.7,6.936,5.121,7.27,4.54,7.616ZM2.425,3.386a.293.293,0,0,0,.3.3.3.3,0,0,0,.3-.3h0V3.1a.068.068,0,0,1,.037-.062.079.079,0,0,1,.074,0l.767.445.767.445a.07.07,0,0,1,0,.124L3.9,4.5l-.767.445a.079.079,0,0,1-.074,0,.068.068,0,0,1-.037-.062V4.6a.293.293,0,0,0-.3-.3.3.3,0,0,0-.3.3v.408a.6.6,0,0,0,.9.52L5.072,4.511a.568.568,0,0,0,.3-.52.592.592,0,0,0-.3-.52L3.328,2.458a.592.592,0,0,0-.606,0,.568.568,0,0,0-.3.52Z" transform="translate(0 0.075)" fill="#f5821e"/>
        <g id="Group_11" data-name="Group 11" clip-path="url(#clip-path)">
          <rect id="Rectangle_12" data-name="Rectangle 12" width="7.794" height="8.362" transform="translate(0 -0.127)" fill="#f5821e"/>
        </g>
      </g>
    </g>
    <g id="Group_14" data-name="Group 14" transform="translate(10.963 2.15)">
      <path id="Path_23" data-name="Path 23" d="M78.371,13.8a.372.372,0,0,1,.371.371.371.371,0,1,1-.371-.371M78.1,15.062h.544V18.4H78.1Z" transform="translate(-78 -13.8)" fill-rule="evenodd"/>
      <path id="Path_24" data-name="Path 24" d="M125.857,23.3a1.755,1.755,0,0,0-1.212.482v-.4H124.1v3.34h.544v-1.67a1.214,1.214,0,0,1,1.212-1.212Z" transform="translate(-118.397 -22.125)" fill-rule="evenodd"/>
      <path id="Path_25" data-name="Path 25" d="M176.144,23.387H175.6v3.34h.544v-1.67a1.212,1.212,0,0,1,2.425,0v1.67h.544v-1.67a1.212,1.212,0,0,1,2.425,0v1.67h.544v-1.67a1.757,1.757,0,0,0-3.241-.94,1.735,1.735,0,0,0-1.484-.816,1.754,1.754,0,0,0-1.212.482Z" transform="translate(-163.526 -22.125)" fill-rule="evenodd"/>
      <path id="Path_26" data-name="Path 26" d="M92.169,13.8v1.67a1.757,1.757,0,1,0,0,2.548V18.4h.544V13.8Zm-1.225,4.144a1.212,1.212,0,1,1,1.212-1.212A1.2,1.2,0,0,1,90.944,17.944Z" transform="translate(-87.815 -13.8)" fill-rule="evenodd"/>
      <path id="Path_27" data-name="Path 27" d="M143.569,23.474v.408a1.757,1.757,0,1,0,0,2.548v.383h.544v-3.34Zm0,1.67a1.152,1.152,0,1,1,0-.124v.124Z" transform="translate(-132.856 -22.212)" fill-rule="evenodd"/>
    </g>
  </g>
</svg>
