<svg xmlns="http://www.w3.org/2000/svg" width="17.309" height="17.307" viewBox="0 0 17.309 17.307">
  <g id="Group_9548" data-name="Group 9548" transform="translate(0)">
    <path id="Path_5964" data-name="Path 5964" d="M1329.641,884.488a3.387,3.387,0,0,0,.012-.51h-.012a.021.021,0,0,0,.012,0q0-.43,0-.861h0q0-.373,0-.745v-1.065q0-.237,0-.473c0-.456.009-.912-.013-1.368l0-.255a4.268,4.268,0,0,0-.016-.454,3.387,3.387,0,0,0-.018-.389,3.712,3.712,0,0,0-.036-.488,1.01,1.01,0,0,0-.027-.223h0c-.033-.042,0-.092-.019-.136a.144.144,0,0,0-.013-.084l0-.017a.586.586,0,0,0-.031-.17h0a1.793,1.793,0,0,0-.051-.236.834.834,0,0,0-.052-.2h0l-.053-.17h0a.919.919,0,0,0-.08-.241h0a.227.227,0,0,1-.016-.036,1.681,1.681,0,0,0-.174-.411h0a2.016,2.016,0,0,0-.212-.4c-.057-.065-.078-.153-.141-.213a.382.382,0,0,0-.079-.108h0l-.159-.183a.857.857,0,0,0-.152-.18h0l-.165-.158a.227.227,0,0,0-.1-.087h0a1.3,1.3,0,0,0-.344-.3c-.041-.028-.082-.056-.122-.086a2.808,2.808,0,0,0-.6-.347,2.588,2.588,0,0,0-.443-.181,2.928,2.928,0,0,0-.49-.15c-.022-.013-.048-.006-.072-.012a3.257,3.257,0,0,0-.552-.111h0a4.127,4.127,0,0,0-.593-.063l-.081,0a.721.721,0,0,0-.189-.012l-.151-.006h0q-.531-.036-1.063-.033h0a.148.148,0,0,0-.032-.007l-1.559,0h-.8c-.546,0-1.091,0-1.636,0-.216,0-.432-.008-.648.011h0a.077.077,0,0,0-.016,0,15.616,15.616,0,0,0-2.248.147,4.779,4.779,0,0,0-1.062.3h0a2.648,2.648,0,0,0-.489.221h0a2.249,2.249,0,0,0-.421.253.089.089,0,0,0-.05.035,1.441,1.441,0,0,0-.241.184h0a.634.634,0,0,0-.153.131,1.2,1.2,0,0,0-.181.175.968.968,0,0,0-.159.166,2.24,2.24,0,0,0-.255.3h0a1.633,1.633,0,0,0-.181.256c-.023.01-.02.034-.029.052a1.62,1.62,0,0,0-.171.3,3,3,0,0,0-.241.555h0a1.311,1.311,0,0,0-.1.29,2.166,2.166,0,0,0-.1.4h0a.48.48,0,0,0-.036.169h0a1.235,1.235,0,0,0-.048.289.16.16,0,0,0-.013.085l-.005.049h0a3.293,3.293,0,0,0-.048.509,2.446,2.446,0,0,0-.018.37.119.119,0,0,0-.006.057c-.011.116-.01.232-.011.348h0a4.19,4.19,0,0,0-.014.476.46.46,0,0,0,0,.136h0v.049a.113.113,0,0,0-.005.07s0,.006,0,.008a.438.438,0,0,0,0,.051c0,.012,0,.026,0,.038-.008.186,0,.373,0,.56a.46.46,0,0,0,0,.135v.322c0,.051,0,.1,0,.153q0,.169,0,.338v1.32q0,.143,0,.286h0q0,.094,0,.187h0q0,.564,0,1.127a.489.489,0,0,0,.01.158h0c0,.067,0,.134,0,.2h0a2.877,2.877,0,0,0,.011.389h0l0,.033h0c0,.105,0,.211.009.316a.193.193,0,0,0,.007.058h0a2.434,2.434,0,0,0,.013.309.039.039,0,0,0,0,.029,2.23,2.23,0,0,0,.034.389h0a2.126,2.126,0,0,0,.049.371h0a1.455,1.455,0,0,0,.053.285.627.627,0,0,0,.038.17h0a2.106,2.106,0,0,0,.1.37h0a1.132,1.132,0,0,0,.083.238,1.552,1.552,0,0,0,.1.254,1.609,1.609,0,0,0,.118.254,1.375,1.375,0,0,0,.119.219.823.823,0,0,0,.105.169.515.515,0,0,0,.1.152.622.622,0,0,0,.1.135h0a1.377,1.377,0,0,0,.152.187l.152.169a1.1,1.1,0,0,0,.152.152,1.3,1.3,0,0,0,.186.169l.118.1a1.075,1.075,0,0,0,.185.136h0a.511.511,0,0,0,.151.1h0a.783.783,0,0,0,.173.112h0l.066.038h0a.766.766,0,0,0,.153.08h0a.669.669,0,0,0,.186.084,1.253,1.253,0,0,0,.22.1h0a1.82,1.82,0,0,0,.319.108h0a2.317,2.317,0,0,0,.491.136h0a.769.769,0,0,0,.238.047c.024.026.054.015.082.015l.019,0h0c.024.026.054.015.083.014h0l.021,0c.023.025.053.015.081.014h0l.048,0c.026.024.057.015.087.014h0l.049,0c.037.028.079.013.119.014h0l.051,0c.031.025.068.013.1.013h0l.1,0a.5.5,0,0,0,.2.014h0l.1,0a.745.745,0,0,0,.253.013h.083l.053,0h0a.194.194,0,0,0,.118.013h.319l.086,0c.037.026.079.011.119.014h2.129s0-.009,0-.014h0a.025.025,0,0,0,0,.014H1323a3.609,3.609,0,0,0,.541-.012h0l.2,0h0a1.736,1.736,0,0,0,.31-.007l.032-.005h.007l.006,0a2.546,2.546,0,0,0,.289-.009.068.068,0,0,0,.033,0l.049,0,.1,0a.639.639,0,0,0,.175-.008.011.011,0,0,0,.01,0h0a.935.935,0,0,0,.22-.017h0a.609.609,0,0,0,.184-.018,1.159,1.159,0,0,0,.271-.035h0a.209.209,0,0,0,.1-.016.639.639,0,0,0,.186-.033.98.98,0,0,0,.236-.051l.017,0a1.2,1.2,0,0,0,.254-.067.149.149,0,0,0,.085-.03h0a.234.234,0,0,0,.118-.034l.018,0a.29.29,0,0,0,.1-.035.373.373,0,0,0,.117-.045.077.077,0,0,0,.052-.02h0a.962.962,0,0,0,.224-.1.283.283,0,0,0,.112-.053h0a.63.63,0,0,0,.158-.082h0l.045-.023a.494.494,0,0,0,.136-.081h0a.439.439,0,0,0,.132-.084h0l.073-.049h0a.345.345,0,0,0,.113-.087h0a.194.194,0,0,0,.072-.065.255.255,0,0,0,.121-.085h0a1.645,1.645,0,0,0,.251-.239l.033-.033a1.292,1.292,0,0,0,.254-.272l.049-.054c.026-.005.031-.026.036-.048l.136-.166a2.526,2.526,0,0,0,.267-.427h0l.017-.035a.33.33,0,0,0,.066-.118h0l.037-.082h0a.154.154,0,0,0,.049-.1h0a.345.345,0,0,1,.015-.038,2.832,2.832,0,0,0,.205-.535,3.106,3.106,0,0,0,.136-.524v0a.106.106,0,0,0,.013-.082,2.5,2.5,0,0,0,.073-.4h0c.023-.028.014-.06.013-.091h0c0-.015,0-.031,0-.046h0a.2.2,0,0,0,.013-.12l0-.049h0a.258.258,0,0,0,.013-.139h0c0-.022,0-.044,0-.066a.255.255,0,0,0,.012-.136q0-.043,0-.085h0c0-.028,0-.055.005-.083a.2.2,0,0,0,.012-.12h0v-.169h0c0-.017,0-.034,0-.05s0-.053.005-.08h0a1.483,1.483,0,0,0,.013-.343l0-.216Zm-6.711,5.327v-.006a.1.1,0,0,1,.015.011Zm-2.183.432v0h0Zm2.69-.469v0h0Zm1.076-.334a.023.023,0,0,1,.009-.009Zm.832.3a.03.03,0,0,0,0,0l0,0Zm-1.486-.273h0Zm-1.35-.386,0,0h.006Zm-8.574-10.736h0Zm-.642,7.1h0Zm-.019-.318v0h0Zm.237-1.388s0,0,0,0h0Zm-.035-.911v0h0Zm-.4-1.525v0h0Zm.034.541h0Zm-.034.811v0Zm0,3.825-.012,0A.014.014,0,0,1,1313.076,886.484Zm.319-1.829h0Zm-.051-.169h0Zm.543-3.853h0Zm.029,6.087a.007.007,0,0,1,0,0h0Zm.02-.543h0Zm14.491-2.561h0Zm.921-1.513a.033.033,0,0,1-.011-.022l.016.024Zm-9.8-7.949a.021.021,0,0,0,0,0h0Zm-.494-.162v0h0Zm-2.247.251,0,.007a.049.049,0,0,0,0-.006Zm5.6-.017v0l0,0Zm4.687.853a.053.053,0,0,1,.021,0Zm-9.6-.647-.007-.011.015.008Zm.7-.121s0,.007,0,.011l0-.011Zm.57-.435s0,0,0,0h0Zm2.709.841h0Zm6.643,5.865Zm.359-4.7.065.017A.122.122,0,0,1,1328.477,875.878Zm-9.783-2.2s0-.008,0-.012h.01Zm-1.6,1.12,0,0v0Zm1.523-.018h0Zm2.332.071h0s0,0-.005,0Zm.625,0h0Zm-2.689,15.75v0h0Zm5.883-.873a.009.009,0,0,0,0,0h0Zm3.092-3.033c-.046.163-.117.318-.156.483a.088.088,0,0,0-.036.052,2.5,2.5,0,0,1-.221.4.128.128,0,0,0-.025.078v0l-.12.154a.02.02,0,0,0-.026,0,.7.7,0,0,0-.159.189.143.143,0,0,0-.108.115l-.048.043v.006c-.069-.021-.088.044-.124.08l0,0c-.059.011-.09.061-.125.1v0l-.037.027h0l-.167.1h0l-.033.021a.058.058,0,0,0-.051.026.141.141,0,0,0-.158.07.1.1,0,0,0-.121.05.051.051,0,0,0-.073.026h0a.245.245,0,0,0-.2.071l-.008,0a.164.164,0,0,0-.13.038l-.007.008a.365.365,0,0,0-.257.063.029.029,0,0,0,0,0l-.217.039-.235.032-.187.018-.219.016a3.214,3.214,0,0,0-.355.017c-.147,0-.293.008-.439.017h-.036c-.2,0-.405,0-.607.014l.055.009a.077.077,0,0,1-.055-.009l-.219,0h-.3c-.334,0-.669,0-1,0l-1.786,0a.024.024,0,0,0,0,.013h0v-.012h-.709l-.3-.005h0a.774.774,0,0,0-.238-.012h-.354l-.152,0h0a.2.2,0,0,0-.119-.012h-.033a.337.337,0,0,0-.083-.007.31.31,0,0,1-.108-.011.4.4,0,0,0-.083-.007h-.1a.516.516,0,0,1-.153-.01.493.493,0,0,0-.1-.007.5.5,0,0,1-.15-.008.287.287,0,0,0-.054-.007.391.391,0,0,1-.116-.009.272.272,0,0,0-.052-.007.477.477,0,0,1-.089-.007.093.093,0,0,0-.026,0h0s0,0-.006-.005c-.035-.01-.072-.006-.106-.019-.133-.017-.261-.056-.394-.073h-.021a.34.34,0,0,0-.166-.054l-.021.008c-.092-.017-.173-.073-.267-.084l-.384-.184a.021.021,0,0,0-.015-.017.04.04,0,0,0-.017-.034c-.081-.05-.158-.1-.238-.155a.032.032,0,0,0-.039,0h0c-.032-.1-.123-.144-.2-.2h0a.28.28,0,0,0-.166-.164.123.123,0,0,0-.1-.109c-.022-.052-.043-.1-.1-.124h0a.27.27,0,0,0-.127-.21s0,0,0,0a.235.235,0,0,0-.105-.176h0a.188.188,0,0,0-.085-.185h0a.386.386,0,0,0-.083-.24l-.013,0-.081-.266h0l-.1-.486a.041.041,0,0,0,0-.019h0l-.037-.321c-.006-.085-.013-.169-.019-.254h0l-.017-.355a3.873,3.873,0,0,0-.016-.405v-.034c0-.108,0-.217-.006-.325,0-.021,0-.041-.007-.062h0v0a1.053,1.053,0,0,0,0-.217.914.914,0,0,0-.012-.259.044.044,0,0,0,.024-.042.411.411,0,0,0-.015-.046v-.162h0c0-.034,0-.067,0-.1q0-1,0-2.01c0-.309,0-.618,0-.927a.026.026,0,0,0,.018-.014.11.11,0,0,0,.011-.049c0-.241.008-.481,0-.722a.276.276,0,0,0-.021-.04c0-.039,0-.079,0-.118l.017-.019a.125.125,0,0,0-.012-.1l.009-.008c.013-.028.034-.056,0-.081l0,0h.017c.005,0,.009-.014.011-.021a.294.294,0,0,0,.006-.1c-.007-.068.021-.141-.024-.2l.016-.02a1.459,1.459,0,0,0,.01-.2.023.023,0,0,0-.019-.015h0a.293.293,0,0,0,0-.108V878.8a.134.134,0,0,0,.024-.029c.01-.106.017-.212.024-.318a.111.111,0,0,0-.026-.1.02.02,0,0,0,.01-.008c.017-.07.056-.139.007-.21l.017-.016a.927.927,0,0,0,.029-.281l-.022,0a.158.158,0,0,1,.007-.015.209.209,0,0,0,.036-.213l.014-.01a1.174,1.174,0,0,0,.065-.249.064.064,0,0,0-.009-.066l.009,0a.663.663,0,0,0,.085-.3h0c.023,0,.033-.023.041-.043.028-.076.058-.152.09-.227a.051.051,0,0,0,0-.055.2.2,0,0,0,.081-.155.086.086,0,0,0,.051-.048,2.63,2.63,0,0,1,.393-.522c.018-.018.043-.037.03-.068h0c.03.012.047-.011.064-.027.083-.078.158-.165.249-.235.014-.011.03-.024.03-.043a.159.159,0,0,0,.141-.108l.007.006c.017.017.036.01.053,0,.11-.058.215-.126.329-.178a.041.041,0,0,0,.026-.029c.091-.033.181-.067.272-.1a4.823,4.823,0,0,1,.925-.2.261.261,0,0,0,.1-.012l.065-.005.592-.034.441-.017.862-.017h1.683c.076,0,.151,0,.227-.005h0c.341.007.682.007,1.024.005a.584.584,0,0,0,.083,0l.366,0,.961.009v0a.027.027,0,0,0,.033,0h0a.035.035,0,0,0,0,.017.113.113,0,0,0,.079.022c.357,0,.714.019,1.071.035a.384.384,0,0,0,.134-.01l.015-.007c.012.032.043.029.07.032a1.184,1.184,0,0,0,.122,0,.219.219,0,0,1,.1.01c.1.027.209.033.313.05a.079.079,0,0,0,.066-.012h0c.01.029.037.032.061.037a4.088,4.088,0,0,1,.472.125.1.1,0,0,0,.1,0c0,.032.026.036.045.044a3.355,3.355,0,0,1,.557.274.115.115,0,0,0,.056.019c0,.021.023.032.039.044a3.021,3.021,0,0,1,.381.328.143.143,0,0,0,.076.048.228.228,0,0,0,.147.155v0a.319.319,0,0,0,.148.2h.005a.252.252,0,0,0,.114.2.28.28,0,0,0,.081.189l.007,0a.376.376,0,0,0,.1.234l-.006,0a.062.062,0,0,0,0,.049c.028.1.063.192.094.288a.046.046,0,0,0,.034.034h.01a.091.091,0,0,0-.023.008,1.171,1.171,0,0,0,.045.272c.006.04,0,.086.04.116l.007,0a.259.259,0,0,0,.037.241.06.06,0,0,0-.014.015.988.988,0,0,0,.032.348.081.081,0,0,0,.014.015.109.109,0,0,0-.015.093.655.655,0,0,1,.012.166.154.154,0,0,0,.009.04l.005.01a.068.068,0,0,0-.006.055.128.128,0,0,0,.015.03,1.482,1.482,0,0,0,.013.278h0c0,.062,0,.124.005.186a.1.1,0,0,1,.035.008l-.035-.008v.084c.021.078-.011.159.017.236l.011,0a.18.18,0,0,0-.028.012.663.663,0,0,0,0,.2.2.2,0,0,0,.013.028.031.031,0,0,0,0,.027q0,.153,0,.307s0,0,0,0a.625.625,0,0,0,0,.165c0,.06,0,.12,0,.18h0q0,.1,0,.194a.166.166,0,0,0,0,.08c0,.046,0,.092,0,.138q0,.757,0,1.514l0,0a.5.5,0,0,0,0,.2v.055a.1.1,0,0,0-.008.027,2.231,2.231,0,0,0,.005.294l0,0v.4l0,0a.668.668,0,0,0,0,.232c0,.019,0,.038,0,.057a.079.079,0,0,0,0,.058v.022a.027.027,0,0,0-.012.01,1.906,1.906,0,0,0-.016.4c0,.116,0,.233,0,.349a1.376,1.376,0,0,1-.011.274.707.707,0,0,0-.007.137c0,.055,0,.11,0,.166a.47.47,0,0,0,.009.125v.02a.044.044,0,0,0-.017.02.381.381,0,0,0-.009.115,1,1,0,0,1-.011.23.49.49,0,0,0-.007.1c0,.047,0,.095,0,.142,0,0,0,.008,0,.012l0,0a.12.12,0,0,0-.015.048,6.841,6.841,0,0,1-.125.754.073.073,0,0,0,.012.071C1327.875,886.661,1327.867,886.679,1327.862,886.693Zm1.673-.466h0Zm.117-3.11-.012,0h0A.018.018,0,0,0,1329.652,883.117Zm-15.341-8.738h0s0,0,0,.006h-.018Zm2.279,16.1Zm12.948-4.288h0v0h0Z" transform="translate(-1312.347 -873.315)" fill="#262626"/>
    <path id="Path_5965" data-name="Path 5965" d="M1429.194,902.36a.8.8,0,0,0-.072-.241.765.765,0,0,0-.2-.293.974.974,0,0,0-1.151-.18h0a.7.7,0,0,0-.259.192h0a.638.638,0,0,0-.159.218h0a.5.5,0,0,0-.079.191.5.5,0,0,0-.036.209.2.2,0,0,0,0,.133h0a.654.654,0,0,0,.063.292.641.641,0,0,0,.132.24.977.977,0,0,0,1.164.32.835.835,0,0,0,.359-.253h0a.8.8,0,0,0,.128-.178h0a.366.366,0,0,0,.077-.2.325.325,0,0,0,.037-.128.13.13,0,0,0,.011-.081q0-.049,0-.1a.35.35,0,0,0-.013-.146Zm-1.1.268v0h0Z" transform="translate(-1414.927 -898.512)" fill="#262626"/>
    <path id="Path_5966" data-name="Path 5966" d="M1361.154,917.169h0c0-.017,0-.033-.006-.05V917.1a.2.2,0,0,0-.013-.127h0l-.033-.226h0a2.606,2.606,0,0,0-.076-.37,1.552,1.552,0,0,0-.1-.348,1.409,1.409,0,0,0-.141-.369,1.694,1.694,0,0,0-.157-.323,2.546,2.546,0,0,0-.281-.474,3.843,3.843,0,0,0-.331-.424h0a3.319,3.319,0,0,0-.48-.473h0a3.177,3.177,0,0,0-.316-.247h0l-.242-.161h0a2.127,2.127,0,0,0-.336-.192,3.114,3.114,0,0,0-.584-.246,1.461,1.461,0,0,0-.281-.087h0a3.691,3.691,0,0,0-.985-.16.193.193,0,0,0-.095-.011,4.578,4.578,0,0,0-1.056.087,4.407,4.407,0,0,0-1.594.647h0l-.2.137a2.957,2.957,0,0,0-.384.3l-.178.176h0a1.277,1.277,0,0,0-.214.228h0l-.014.016-.05.056h0a1.607,1.607,0,0,0-.194.245.52.52,0,0,0-.123.194,1.723,1.723,0,0,0-.247.4,1.561,1.561,0,0,0-.157.338.351.351,0,0,0-.056.139h0a.656.656,0,0,0-.069.192h0a.078.078,0,0,0-.018.055.6.6,0,0,0-.052.175.783.783,0,0,0-.053.212.157.157,0,0,0-.018.086,1.053,1.053,0,0,0-.046.25h0l-.013.078h0c0,.039-.007.077-.011.115s-.006.049-.008.069a3.176,3.176,0,0,0-.016.616.205.205,0,0,0,0,.074l0,.034a.563.563,0,0,0,.015.179h0a.476.476,0,0,0,.018.155h0l0,.018a.612.612,0,0,0,.035.212.363.363,0,0,0,.034.159h0a.409.409,0,0,0,.033.141.611.611,0,0,0,.055.192.51.51,0,0,0,.052.16.421.421,0,0,0,.052.142h0a.587.587,0,0,0,.071.175.526.526,0,0,0,.071.157h0a.1.1,0,0,0,.032.072,2.042,2.042,0,0,0,.178.318h0c.005.042.039.068.057.1a2.222,2.222,0,0,0,.19.266,2.791,2.791,0,0,0,.387.458,3.185,3.185,0,0,0,.476.433,3.57,3.57,0,0,0,.655.428,2.937,2.937,0,0,0,.489.233,4.216,4.216,0,0,0,1.178.292l.079.01h0l.2.014h0a4.025,4.025,0,0,0,1.182-.089,1.018,1.018,0,0,0,.244-.057.075.075,0,0,0,.055-.015,1.241,1.241,0,0,0,.28-.087h0a1.479,1.479,0,0,0,.352-.142.678.678,0,0,0,.228-.109.36.36,0,0,0,.141-.071.742.742,0,0,0,.176-.1.755.755,0,0,0,.192-.127,1.394,1.394,0,0,0,.283-.208h0a.313.313,0,0,0,.105-.087.7.7,0,0,0,.159-.141.3.3,0,0,0,.089-.085h0a.7.7,0,0,0,.138-.143.355.355,0,0,0,.094-.1.632.632,0,0,0,.1-.123h0a.721.721,0,0,0,.124-.158.426.426,0,0,0,.1-.143c.031-.056.09-.092.108-.156a.286.286,0,0,0,.072-.126c.024-.04.068-.07.069-.123h0a.516.516,0,0,0,.085-.159c.017-.07.08-.118.093-.191h0a2.039,2.039,0,0,0,.157-.405h0a2.506,2.506,0,0,0,.141-.527,1.251,1.251,0,0,0,.053-.317c.021-.033.011-.071.017-.106h0a.2.2,0,0,0,.013-.127h0c0-.022,0-.044,0-.067h0a.408.408,0,0,0,.013-.178v-.281A.408.408,0,0,0,1361.154,917.169Zm-1.812,1.493a.318.318,0,0,0,.018.028A.039.039,0,0,1,1359.342,918.663Zm-5.006,1.629-.014,0A.017.017,0,0,1,1354.336,920.292Zm-1.351-3.666h0Zm-.332.6h0Zm4.5-3.554,0,0v0Zm-1.424.491h0Zm3.994,1.413.006,0Zm-6.459.982h0Zm6.212.176s0,.005,0,.008l0-.007Zm.072.539v-.011h0a.048.048,0,0,1,.008.012Zm0-.064.014,0h-.014v-.005Zm1.211-.571a.018.018,0,0,1,.016.01Zm-5.623-3.187h0Zm3.071,6.547a.049.049,0,0,0-.035,0c-.1.056-.2.113-.305.172a.031.031,0,0,0-.013.029c-.08-.014-.136.037-.195.079,0,0,0,.006,0,.01a.715.715,0,0,0-.28.075.022.022,0,0,0-.012.011l-.015,0c-.063.014-.135.007-.186.055a.266.266,0,0,0-.034,0c-.106,0-.209.035-.316.038a.054.054,0,0,0-.041.015l-.033,0q-.2,0-.41,0l-.032,0c-.011-.016-.033-.016-.052-.017a2.856,2.856,0,0,1-.446-.076.1.1,0,0,0-.085,0s0-.005-.006-.009a.1.1,0,0,0-.059-.035,3.07,3.07,0,0,1-.792-.38.108.108,0,0,0-.064-.021.055.055,0,0,0-.028-.041,2.533,2.533,0,0,1-.334-.292.121.121,0,0,0-.081-.041.092.092,0,0,0-.071-.072c.018-.025-.008-.047-.021-.066-.045-.064-.1-.123-.143-.186a.1.1,0,0,0-.061-.041l-.108-.165h0a.374.374,0,0,0-.135-.271.093.093,0,0,0-.054-.114.333.333,0,0,0-.089-.254c.024-.047,0-.08-.037-.109l-.065-.3c0-.01.008-.021.013-.031a.136.136,0,0,0-.037-.138h0l-.016-.224v-.054l0-.211c0-.018,0-.035,0-.053h0l.033-.284.01,0a.086.086,0,0,0,.021-.1l-.006-.008a2.43,2.43,0,0,1,.048-.22h0a.26.26,0,0,0,.033-.106h0a.283.283,0,0,0,.037-.106h0l.07-.174h0l.084-.179h0c.008-.015.014-.031.023-.046l.2-.325h0a.088.088,0,0,0,.068-.075c0-.005,0-.01,0-.015a.074.074,0,0,0,.045-.061h.014c.05-.023.1-.046.085-.112h.006l.161-.176.408-.314h0a.247.247,0,0,0,.1-.073c.067-.007.111-.059.167-.087a5.165,5.165,0,0,1,.571-.227h0l.367-.076a.121.121,0,0,0,.092-.013h0l.047,0a.283.283,0,0,0,.147-.013h.177a.289.289,0,0,0,.043,0,1.1,1.1,0,0,1,.141,0,.155.155,0,0,0,.039.008h0a.249.249,0,0,0,.086,0l.013,0,.036,0a.125.125,0,0,0,.093.014h0a.73.73,0,0,0,.186.035,4.473,4.473,0,0,1,.569.181,5.438,5.438,0,0,1,.511.294,3.849,3.849,0,0,1,.449.385.908.908,0,0,0,.216.269l.02.012.207.305c-.017.034,0,.064.017.092a2.944,2.944,0,0,1,.184.418c.008.024.016.05.046.058a.149.149,0,0,0,.053.169.025.025,0,0,0-.008.009.089.089,0,0,0,0,.06c.03.119.04.242.069.362a.1.1,0,0,0,.017.029.365.365,0,0,0,0,.088.148.148,0,0,0-.01.046c0,.11,0,.22,0,.33a.414.414,0,0,1-.009.148.91.91,0,0,0-.024.184.18.18,0,0,0,0,.02s-.005,0-.006.008a1.568,1.568,0,0,0-.067.329l.009.006a.043.043,0,0,0-.02.071l0,0c-.066.046-.06.124-.084.188a.1.1,0,0,0,0,.02.09.09,0,0,0-.04.108h0a.251.251,0,0,0-.1.179.083.083,0,0,0,0,.011.1.1,0,0,0-.057.109h0a.223.223,0,0,0-.107.177h0a.166.166,0,0,0-.109.129l0,0a.253.253,0,0,0-.136.17c-.038,0-.058.013-.055.051a.2.2,0,0,0-.145.145.167.167,0,0,0-.128.106h-.011c-.047.022-.1.043-.111.1a.109.109,0,0,0-.116.083Zm2.078-4.717,0-.007v.006Zm-.308-.485a.015.015,0,0,1,.012.006Zm1.154,3.1,0,0h0Z" transform="translate(-1347.888 -908.836)" fill="#262626"/>
  </g>
</svg>
