<svg xmlns="http://www.w3.org/2000/svg" width="118.32" height="45" viewBox="0 0 118.32 45"><g transform="translate(-99 -8)"><g transform="translate(99 8)"><g transform="translate(0 0)"><path d="M6.047,27.8A17.6,17.6,0,0,1,.5,18.532,17.179,17.179,0,0,1,0,14.4V31.029a1.19,1.19,0,0,0,1.31,1.209,12.5,12.5,0,0,0,7.66-3.326h0A4.265,4.265,0,0,1,6.047,27.8Z" transform="translate(0 0.163)" fill="#73cde1"/><path d="M17.87,15v.705A17.805,17.805,0,0,1,11.823,27.9,4.391,4.391,0,0,1,8.9,29.013h0a12.052,12.052,0,0,0,7.66,3.326,1.19,1.19,0,0,0,1.31-1.209V15Z" transform="translate(0.07 0.164)" fill="#73cde1"/><path d="M10.846,34.309a2.121,2.121,0,0,0-3.83,0C6.009,36.527,4.9,39.147,4.9,40.659A4.043,4.043,0,0,0,8.931,44.69h0a4.043,4.043,0,0,0,4.031-4.031C12.963,39.147,11.854,36.527,10.846,34.309Z" transform="translate(0.038 0.31)" fill="#ed3d7f"/><path d="M11.792,1.008a4.292,4.292,0,0,0-5.644,0A18.144,18.144,0,0,0,0,14.513a17.677,17.677,0,0,0,6.047,13.4,4.427,4.427,0,0,0,5.745,0,17.677,17.677,0,0,0,6.047-13.4A17.7,17.7,0,0,0,11.792,1.008ZM8.97,18.444A5.184,5.184,0,0,1,3.83,13.2a2.79,2.79,0,0,1,.1-.907A5.1,5.1,0,0,1,8.97,8.063,5.284,5.284,0,0,1,14.11,12.3a2.79,2.79,0,0,1,.1.907A5.2,5.2,0,0,1,8.97,18.444Z" transform="translate(0 0.05)" fill="#632469"/></g><g transform="translate(32.553 8.113)"><path d="M54.818,19.118A2.281,2.281,0,0,1,52.5,16.8V29.9a2.318,2.318,0,0,0,4.636,0V16.8A2.344,2.344,0,0,1,54.818,19.118Z" transform="translate(-32.142 -7.931)" fill="#73cde1"/><path d="M61.369,8A8.818,8.818,0,0,0,52.5,16.869a2.318,2.318,0,1,1,4.636,0,4.233,4.233,0,1,1,8.466,0,2.318,2.318,0,0,0,4.636,0A8.882,8.882,0,0,0,61.369,8Z" transform="translate(-32.142 -8)" fill="#73cde1"/><circle cx="2.318" cy="2.318" r="2.318" transform="translate(20.358 6.551)" fill="#34aec4"/><path d="M75.018,21.2a2.281,2.281,0,0,1,2.318,2.318v-13.1a2.318,2.318,0,0,0-4.636,0v13.1A2.281,2.281,0,0,1,75.018,21.2Z" transform="translate(-31.983 -7.999)" fill="#632469"/><path d="M85.3,25.536a2.28,2.28,0,0,1,3.225-.6l1.613,1.109a10.133,10.133,0,0,0,.4-2.52v-13.1a2.318,2.318,0,0,0-4.636,0v13.1a4.233,4.233,0,1,1-8.466,0,2.318,2.318,0,0,1-4.636,0,8.84,8.84,0,0,0,14.916,6.45L86,28.861A2.353,2.353,0,0,1,85.3,25.536Z" transform="translate(-31.983 -7.999)" fill="#632469"/><circle cx="2.318" cy="2.318" r="2.318" transform="translate(40.717 13.102)" fill="#44154a"/><path d="M114.42,14.551a2.266,2.266,0,0,1,2.217,1.915,8.822,8.822,0,0,0-17.637.4,2.318,2.318,0,0,0,4.636,0,4.233,4.233,0,1,1,8.466,0v0A2.492,2.492,0,0,1,114.42,14.551Z" transform="translate(-31.777 -8)" fill="#73cde1"/><path d="M34.719,17.877a2.318,2.318,0,0,1,0-4.636h2.217V10.318a2.318,2.318,0,1,0-4.636,0v13.1a8.818,8.818,0,0,0,8.869,8.869,2.318,2.318,0,1,1,0-4.636,4.258,4.258,0,0,1-4.233-4.233V17.776H34.719Z" transform="translate(-32.3 -8)" fill="#ed3d7f"/><path d="M43.418,29.969A2.281,2.281,0,0,1,41.1,32.287a8.818,8.818,0,0,0,8.869-8.869,2.318,2.318,0,0,0-4.636,0A4.258,4.258,0,0,1,41.1,27.651,2.281,2.281,0,0,1,43.418,29.969Z" transform="translate(-32.231 -7.897)" fill="#ed3d7f"/><circle cx="2.318" cy="2.318" r="2.318" transform="translate(6.551 19.754)" fill="#c4306a"/><path d="M113.478,25.5A13.273,13.273,0,0,1,103.4,30.136h9.474a2.337,2.337,0,0,0,4.636-.4A4.531,4.531,0,0,0,113.478,25.5Z" transform="translate(-31.743 -7.863)" fill="#73cde1"/><path d="M101.124,27.835a2.179,2.179,0,0,1,1.512-2.116,2.372,2.372,0,0,1,.806-.2h-.806a2.26,2.26,0,0,0-2.318-2.217h0A2.281,2.281,0,0,0,98,25.618v4.233a2.281,2.281,0,0,0,2.318,2.318h0a2.381,2.381,0,0,0,2.318-2.016h.806a1.9,1.9,0,0,1-.806-.2A2.179,2.179,0,0,1,101.124,27.835Z" transform="translate(-31.785 -7.88)" fill="#73cde1"/><path d="M92.942,27.816,90.019,25.8A9.912,9.912,0,0,1,87.6,29.731l2.822,1.915a2.026,2.026,0,0,0,1.31.4,2.436,2.436,0,0,0,1.915-1.008A2.523,2.523,0,0,0,92.942,27.816Z" transform="translate(-31.867 -7.86)" fill="#632469"/><path d="M89.941,25.912,88.328,24.8a2.32,2.32,0,0,0-2.62,3.83l1.713,1.109A7.548,7.548,0,0,0,89.941,25.912Z" transform="translate(-31.889 -7.871)" fill="#44154a"/><path d="M47.684,17.836a2.318,2.318,0,0,0,0-4.636H36.9v4.636Z" transform="translate(-32.264 -7.959)" fill="#ed3d7f"/><path d="M32.4,15.518a2.281,2.281,0,0,0,2.318,2.318h2.217V13.2H34.718A2.281,2.281,0,0,0,32.4,15.518Z" transform="translate(-32.299 -7.959)" fill="#c4306a"/><path d="M113.478,25.571A13.491,13.491,0,0,0,116.8,16.8v0a2.281,2.281,0,0,1-2.318,2.318,2.381,2.381,0,0,1-2.318-2.016,8.78,8.78,0,0,1-8.768,8.466h10.078Z" transform="translate(-31.743 -7.934)" fill="#73cde1"/><path d="M114.317,19.136a2.281,2.281,0,0,0,2.318-2.318v-.4a2.283,2.283,0,0,0-4.535.4v.3A2.132,2.132,0,0,0,114.317,19.136Z" transform="translate(-31.674 -7.949)" fill="#34aec4"/><path d="M113.094,25.5h-9.776a1.9,1.9,0,0,0-.806.2A2.274,2.274,0,0,0,101,27.818a2.179,2.179,0,0,0,1.512,2.116,2.372,2.372,0,0,0,.806.2A13.273,13.273,0,0,0,113.4,25.5Z" transform="translate(-31.761 -7.863)" fill="#34aec4"/></g><g transform="translate(32.654 38.953)"><path d="M35.222,39.2h0c-.2,0-.3.1-.3.2v1.31a1.494,1.494,0,0,1-.1.705,1.141,1.141,0,0,1-1.209.705,1.494,1.494,0,0,1-.705-.1,1.214,1.214,0,0,1-.5-.5v-.1h0V39a.217.217,0,0,1,.2-.2h0a.217.217,0,0,1,.2.2v1.713a1.561,1.561,0,0,0,.2.806.785.785,0,0,0,.705.3c.4,0,.6-.1.705-.4.1-.1.1-.3.1-.6V39a.217.217,0,0,1,.2-.2h.5a.217.217,0,0,1,.2.2h0A.217.217,0,0,1,35.222,39.2Z" transform="translate(-32.4 -38.598)" fill="#632469"/><path d="M40.619,42.025a.189.189,0,0,0-.3,0c-.1,0-.2.1-.3.1a1.1,1.1,0,0,1-.5.1,1.219,1.219,0,0,1-1.209-.6,1.965,1.965,0,0,1-.1-.806V39a.217.217,0,0,1,.2-.2h0a.217.217,0,0,1,.2.2v2.217a.8.8,0,0,0,.806.5.785.785,0,0,0,.705-.3,1.561,1.561,0,0,0,.2-.806V39a.217.217,0,0,1,.2-.2h0a.217.217,0,0,1,.2.2V41.42c0,.1,0,.1.1.1l.2.2a.189.189,0,0,1,0,.3h0a.189.189,0,0,1-.3,0Z" transform="translate(-32.355 -38.598)" fill="#632469"/><path d="M43.6,38.8h.705a.217.217,0,0,1,.2.2v2.217a.8.8,0,0,0,.806.5.785.785,0,0,0,.705-.3,1.561,1.561,0,0,0,.2-.806v-.4a.217.217,0,0,1,.2-.2h0a.217.217,0,0,1,.2.2v.4a1.965,1.965,0,0,1-.1.806,1.283,1.283,0,0,1-1.209.705,1.219,1.219,0,0,1-1.209-.6,1.965,1.965,0,0,1-.1-.806V39.4a.217.217,0,0,0-.2-.2h-.3a.217.217,0,0,1-.2-.2h0C43.4,38.9,43.5,38.8,43.6,38.8Z" transform="translate(-32.315 -38.598)" fill="#632469"/><path d="M51.918,42.126h0a.217.217,0,0,1-.2-.2v-.4c0-.1-.1-.2-.3-.2-.1,0-.2.1-.4.1h-.1a1.219,1.219,0,0,1-1.209-.6,1.965,1.965,0,0,1-.1-.806V39a.217.217,0,0,1,.2-.2h0a.217.217,0,0,1,.2.2v1.512a.8.8,0,0,0,.806.5,1.175,1.175,0,0,0,.705-.2,1.3,1.3,0,0,0,.2-.806v-.1a.217.217,0,0,1,.2-.2h0a.217.217,0,0,1,.2.2v2.116A.352.352,0,0,1,51.918,42.126Z" transform="translate(-32.265 -38.598)" fill="#632469"/><path d="M57.519,42.025a.189.189,0,0,0-.3,0c-.1,0-.2.1-.3.1a1.1,1.1,0,0,1-.5.1,1.219,1.219,0,0,1-1.209-.6,1.965,1.965,0,0,1-.1-.806V39a.217.217,0,0,1,.2-.2h0a.217.217,0,0,1,.2.2v2.217a.8.8,0,0,0,.806.5.785.785,0,0,0,.705-.3,1.561,1.561,0,0,0,.2-.806V39a.217.217,0,0,1,.2-.2h0a.217.217,0,0,1,.2.2V41.42c0,.1,0,.1.1.1l.2.2a.189.189,0,0,1,0,.3h0a.189.189,0,0,1-.3,0Z" transform="translate(-32.222 -38.598)" fill="#632469"/><path d="M63.018,42.126h0a.217.217,0,0,1-.2-.2v-.4c0-.1-.1-.2-.3-.2-.1,0-.2.1-.4.1h-.1a1.219,1.219,0,0,1-1.209-.6,1.965,1.965,0,0,1-.1-.806V39a.217.217,0,0,1,.2-.2h0a.217.217,0,0,1,.2.2v1.512a.8.8,0,0,0,.806.5,1.175,1.175,0,0,0,.705-.2,1.3,1.3,0,0,0,.2-.806v-.1a.217.217,0,0,1,.2-.2h0a.217.217,0,0,1,.2.2v2.116A.352.352,0,0,1,63.018,42.126Z" transform="translate(-32.178 -38.598)" fill="#632469"/><path d="M68.619,42.025a.189.189,0,0,0-.3,0c-.1,0-.2.1-.3.1a1.1,1.1,0,0,1-.5.1,1.219,1.219,0,0,1-1.209-.6,1.965,1.965,0,0,1-.1-.806V39a.217.217,0,0,1,.2-.2h0a.217.217,0,0,1,.2.2v2.217a.8.8,0,0,0,.806.5.785.785,0,0,0,.705-.3,1.561,1.561,0,0,0,.2-.806V39a.217.217,0,0,1,.2-.2h0a.217.217,0,0,1,.2.2V41.42c0,.1,0,.1.1.1l.2.2a.189.189,0,0,1,0,.3h0a.189.189,0,0,1-.3,0Z" transform="translate(-32.135 -38.598)" fill="#632469"/><path d="M71.6,38.8h.705a.217.217,0,0,1,.2.2v2.217a.8.8,0,0,0,.806.5.785.785,0,0,0,.705-.3,1.561,1.561,0,0,0,.2-.806v-.4a.217.217,0,0,1,.2-.2h0a.217.217,0,0,1,.2.2v.4a1.965,1.965,0,0,1-.1.806,1.283,1.283,0,0,1-1.209.705,1.219,1.219,0,0,1-1.209-.6,1.965,1.965,0,0,1-.1-.806V39.4a.217.217,0,0,0-.2-.2h-.3a.217.217,0,0,1-.2-.2h0C71.4,38.9,71.5,38.8,71.6,38.8Z" transform="translate(-32.095 -38.598)" fill="#632469"/><path d="M83.418,42.126h0a.217.217,0,0,1-.2-.2v-.4c0-.1-.1-.2-.3-.2-.1,0-.2.1-.4.1h-.1a1.219,1.219,0,0,1-1.209-.6,1.965,1.965,0,0,1-.1-.806V39a.217.217,0,0,1,.2-.2h0a.217.217,0,0,1,.2.2v1.512a.8.8,0,0,0,.806.5,1.175,1.175,0,0,0,.705-.2,1.3,1.3,0,0,0,.2-.806v-.1a.217.217,0,0,1,.2-.2h0a.217.217,0,0,1,.2.2v2.116A.352.352,0,0,1,83.418,42.126Z" transform="translate(-32.018 -38.598)" fill="#632469"/><path d="M89.12,40.614a1.965,1.965,0,0,1-.1.806,1.283,1.283,0,0,1-1.209.705,1.219,1.219,0,0,1-1.209-.6,1.965,1.965,0,0,1-.1-.806V39a.217.217,0,0,1,.2-.2h0a.217.217,0,0,1,.2.2v.3a.217.217,0,0,0,.2.2h1.713a.217.217,0,0,1,.2.2h0a.217.217,0,0,1-.2.2H87.1a.217.217,0,0,0-.2.2v1.109a.8.8,0,0,0,.806.5.785.785,0,0,0,.705-.3,1.561,1.561,0,0,0,.2-.806v-.2a.217.217,0,0,1,.2-.2h0a.217.217,0,0,1,.2.2v.2Z" transform="translate(-31.976 -38.598)" fill="#632469"/><path d="M92,38.8h.705a.217.217,0,0,1,.2.2v2.217a.8.8,0,0,0,.806.5.785.785,0,0,0,.705-.3,1.561,1.561,0,0,0,.2-.806v-.4a.217.217,0,0,1,.2-.2h0a.217.217,0,0,1,.2.2v.4a1.965,1.965,0,0,1-.1.806,1.283,1.283,0,0,1-1.209.705,1.219,1.219,0,0,1-1.209-.6,1.965,1.965,0,0,1-.1-.806V39.4a.217.217,0,0,0-.2-.2H92a.217.217,0,0,1-.2-.2h0A.217.217,0,0,1,92,38.8Z" transform="translate(-31.934 -38.598)" fill="#632469"/><path d="M98,41.019h0a.217.217,0,0,1,.2.2,1.006,1.006,0,0,0,.4.5h.4a.606.606,0,0,0,.4-.1.517.517,0,0,0,0-1.008c-.1,0-.2-.1-.6-.2-.3-.1-.5-.1-.6-.2-.3-.2-.5-.4-.5-.705a.9.9,0,0,1,.5-.806,1.278,1.278,0,0,1,.6-.1,1.215,1.215,0,0,1,1.209.806v.2h-.2c-.1,0-.2,0-.2-.1-.1-.3-.3-.5-.806-.5a.755.755,0,0,0-.5.1c-.2.1-.3.2-.3.4s.1.3.3.4a2.05,2.05,0,0,0,.5.1c.3.1.6.1.705.2a.639.639,0,0,1,.5.6v.2a.766.766,0,0,1-.6.806,1.278,1.278,0,0,1-.6.1,1.374,1.374,0,0,1-1.209-.5c-.1-.1-.1-.2-.2-.4A1.064,1.064,0,0,0,98,41.019Z" transform="translate(-31.89 -38.6)" fill="#632469"/><path d="M105.618,40.816h0a.217.217,0,0,1-.2-.2v-.3a1.561,1.561,0,0,0-.2-.806.785.785,0,0,0-.705-.3c-.4,0-.6.1-.705.4-.1.1-.1.3-.1.6v1.713a.217.217,0,0,1-.2.2h0a.217.217,0,0,1-.2-.2V40.211a1.494,1.494,0,0,1,.1-.705,1.141,1.141,0,0,1,1.209-.705c.705,0,1.109.3,1.209.806,0,.2.1.4.1.6v.3Q105.769,40.816,105.618,40.816Z" transform="translate(-31.844 -38.598)" fill="#632469"/><path d="M111.118,42.127h0a.217.217,0,0,1-.2-.2V40.212a1.561,1.561,0,0,0-.2-.806.785.785,0,0,0-.705-.3c-.4,0-.6.1-.705.4-.1.1-.1.3-.1.6v1.713a.217.217,0,0,1-.2.2h0a.217.217,0,0,1-.2-.2V40.111a1.494,1.494,0,0,1,.1-.705,1.141,1.141,0,0,1,1.209-.705c.705,0,1.109.3,1.209.806,0,.2.1.4.1.6v1.713Q111.269,42.127,111.118,42.127Z" transform="translate(-31.801 -38.599)" fill="#632469"/><path d="M114.2,38.8h.705a.217.217,0,0,1,.2.2v2.217a.8.8,0,0,0,.806.5.785.785,0,0,0,.705-.3,1.561,1.561,0,0,0,.2-.806v-.4a.217.217,0,0,1,.2-.2h0a.217.217,0,0,1,.2.2v.4a1.965,1.965,0,0,1-.1.806,1.283,1.283,0,0,1-1.209.705,1.219,1.219,0,0,1-1.209-.6,1.965,1.965,0,0,1-.1-.806V39.4a.217.217,0,0,0-.2-.2h-.3a.217.217,0,0,1-.2-.2h0C114,38.9,114.1,38.8,114.2,38.8Z" transform="translate(-31.761 -38.598)" fill="#632469"/></g></g></g></svg>