<svg id="Group_9392" data-name="Group 9392" xmlns="http://www.w3.org/2000/svg" width="42" height="26.775" viewBox="0 0 42 26.775">
  <g id="Group_1" data-name="Group 1" transform="translate(0 0)">
    <path id="Path_3" data-name="Path 3" d="M5.385,0H36.615A5.406,5.406,0,0,1,42,5.427v15.92a5.406,5.406,0,0,1-5.385,5.427H5.385A5.406,5.406,0,0,1,0,21.348V5.427A5.406,5.406,0,0,1,5.385,0Z" fill="#fff"/>
    <g id="_Group_" data-name="&lt;Group&gt;" transform="translate(11.64 7.601)">
      <rect id="Rectangle_2" data-name="Rectangle 2" width="5.062" height="9.097" transform="translate(6.828 1.236)" fill="#ff5f00"/>
      <path id="_Path_" data-name="&lt;Path&gt;" d="M45.115,24.788a5.775,5.775,0,0,1,2.209-4.547,5.785,5.785,0,1,0,0,9.1,5.775,5.775,0,0,1-2.209-4.549Z" transform="translate(-37.965 -19.002)" fill="#eb001b"/>
      <path id="Path_2" data-name="Path 2" d="M105.57,24.777a5.785,5.785,0,0,1-9.36,4.547,5.785,5.785,0,0,0,0-9.1,5.785,5.785,0,0,1,9.36,4.549Z" transform="translate(-86.851 -18.991)" fill="#f79e1b"/>
    </g>
  </g>
</svg>
