<svg xmlns="http://www.w3.org/2000/svg" width="18.99" height="18.996" viewBox="0 0 18.99 18.996">
  <path id="Path_6038" data-name="Path 6038" d="M570.712,437.049l-3.264-3.2a8.278,8.278,0,0,0,1.854-5.229,8.6,8.6,0,1,0-8.689,8.43h.1a8.745,8.745,0,0,0,4.873-1.494l3.231,3.168-.011.045.262.187a1.259,1.259,0,0,0,.741.241,1.323,1.323,0,0,0,.925-.386A1.247,1.247,0,0,0,570.712,437.049Zm-3.612-8.431a6.4,6.4,0,1,1-6.4-6.243A6.37,6.37,0,0,1,567.1,428.618Z" transform="translate(-552.096 -420.199)" fill="#262626"/>
</svg>
