<svg xmlns="http://www.w3.org/2000/svg" width="9" height="9" viewBox="0 0 9 9"><g transform="translate(-1.458 -1.458)"><g transform="translate(1.458 1.458)"><path d="M.232,1.124C.382.876,1.208-.027,1.8,0a.775.775,0,0,1,.458.245A7.988,7.988,0,0,1,3.424,1.827c.115.554-.545.873-.343,1.431a4.676,4.676,0,0,0,2.662,2.66c.558.2.877-.458,1.43-.342A8,8,0,0,1,8.755,6.745.776.776,0,0,1,9,7.2c.022.62-.936,1.457-1.123,1.564A1.64,1.64,0,0,1,6.16,8.751,14.368,14.368,0,0,1,.248,2.841,1.643,1.643,0,0,1,.232,1.124Z" transform="translate(0 0)" fill="#3e3e3e"/></g></g></svg>