<svg id="Group_9391" data-name="Group 9391" xmlns="http://www.w3.org/2000/svg" xmlns:xlink="http://www.w3.org/1999/xlink" width="42" height="26.564" viewBox="0 0 42 26.564">
  <defs>
    <clipPath id="clip-path">
      <path id="path10273" d="M1817.51-499.67c-.014,1.1.983,1.719,1.735,2.086.772.376,1.031.617,1.028.953-.006.514-.616.741-1.187.75a4.142,4.142,0,0,1-2.035-.484l-.359,1.679a5.969,5.969,0,0,0,2.2.407c2.082,0,3.444-1.028,3.451-2.621.008-2.022-2.8-2.134-2.778-3.038.007-.274.268-.567.841-.641a3.731,3.731,0,0,1,1.954.343l.348-1.624a5.312,5.312,0,0,0-1.855-.34c-1.96,0-3.338,1.042-3.349,2.533m8.552-2.393a.9.9,0,0,0-.844.562l-2.974,7.1h2.08l.414-1.144h2.542l.24,1.144h1.833l-1.6-7.663h-1.693m.291,2.07.6,2.878h-1.644l1.044-2.878m-11.365-2.07-1.64,7.663h1.982l1.639-7.663h-1.982m-2.933,0-2.063,5.216-.835-4.435a.924.924,0,0,0-.914-.781h-3.373l-.047.222a8.249,8.249,0,0,1,1.956.652.839.839,0,0,1,.471.673l1.581,6.115h2.095l3.212-7.663h-2.082" transform="translate(-1804.822 502.203)"/>
    </clipPath>
    <linearGradient id="linear-gradient" y1="0.373" x2="0.008" y2="0.373" gradientUnits="objectBoundingBox">
      <stop offset="0" stop-color="#222357"/>
      <stop offset="1" stop-color="#254aa5"/>
    </linearGradient>
  </defs>
  <path id="Path_3" data-name="Path 3" d="M5.385,0H36.615A5.385,5.385,0,0,1,42,5.385V21.179a5.385,5.385,0,0,1-5.385,5.385H5.385A5.385,5.385,0,0,1,0,21.179V5.385A5.385,5.385,0,0,1,5.385,0Z" transform="translate(0 0)" fill="#fff"/>
  <g id="layer1" transform="translate(8.734 9.321)">
    <g id="g10267" transform="translate(0 0)">
      <g id="g10269" clip-path="url(#clip-path)">
        <g id="g10275" transform="translate(-2.569 -7.956)">
          <path id="path10283" d="M0-171.8l24.172-8.9,5.5,14.932L5.5-156.871" transform="translate(0 180.705)" fill="url(#linear-gradient)"/>
        </g>
      </g>
    </g>
  </g>
</svg>
