<svg xmlns="http://www.w3.org/2000/svg" width="21.637" height="15.397" viewBox="0 0 21.637 15.397">
  <g id="Group_9452" data-name="Group 9452" transform="translate(-673.237 -3701.921)">
    <path id="Path_5963" data-name="Path 5963" d="M993.83-95.84q-2.213.067-4.428,0c-.693-.022-1.384-.047-2.075-.078-1.23-.055-2.459-.133-3.688-.215a2.54,2.54,0,0,1-1.919-1.113,3.047,3.047,0,0,1-.563-1.581c-.089-.965-.2-1.928-.265-2.894a26.078,26.078,0,0,1-.02-3.262c.046-.821.108-1.64.181-2.459a10.951,10.951,0,0,1,.188-1.364,2.627,2.627,0,0,1,2.49-2.1c1.3-.071,2.6-.146,3.894-.2,2.02-.089,4.042-.125,6.064-.061,1.435.045,2.87.114,4.305.178.585.026,1.17.051,1.752.109a2.58,2.58,0,0,1,1.949,1.2,3.143,3.143,0,0,1,.452,1.4c.146,1.129.247,2.262.292,3.4a29.091,29.091,0,0,1-.027,3.123c-.063.916-.157,1.831-.247,2.745a3.562,3.562,0,0,1-.36,1.4,2.7,2.7,0,0,1-1.8,1.45,4.715,4.715,0,0,1-.77.079c-1.09.064-2.179.135-3.269.178C995.252-95.885,994.54-95.862,993.83-95.84Zm-4.785-4.435,6.208-3.333-6.208-3.332Z" transform="translate(-307.594 3813.125)" fill="#262626"/>
  </g>
</svg>
